<?xml version="1.0" encoding="UTF-8" standalone="no"?>
<svg width="18" height="18" viewBox="0 0 18 18" fill="none" xmlns="http://www.w3.org/2000/svg">
<mask id="mask0" mask-type="alpha" maskUnits="userSpaceOnUse" x="0" y="2" width="18" height="14">
<path d="M4.27 4.5L9.65079 7.75H8.34921L13.73 4.5H4.27ZM15.5 6.27L9 10.25L2.5 6.27V13.5H15.5V6.27ZM0 16V2H18V16H0Z" fill="white"/>
</mask>
<g mask="url(#mask0)">
<g filter="url(#filter0_d)">
<path d="M4.27 4.5L9.65079 7.75H8.34921L13.73 4.5H4.27ZM15.5 6.27L9 10.25L2.5 6.27V13.5H15.5V6.27ZM0 16V2H18V12.9915V16H0Z" fill="black"/>
<path d="M4.27 4H2.47509L4.01149 4.92799L8.0329 7.35692L6.6232 8.20838L2.7611 5.84359L2 5.37756V6.27V13.5V14H2.5H15.5H16V13.5V6.27V5.37756L15.2389 5.84359L11.3768 8.20838L9.9671 7.35692L13.9885 4.92799L15.5249 4H13.73H4.27ZM9 9.66372L6.69117 8.25H8.34921H9.65079H11.3088L9 9.66372ZM0.5 15.5V2.5H17.5V12.9915V15.5H0.5Z" stroke="black"/>
</g>
</g>
<defs>
<filter id="filter0_d" x="-4" y="2" width="26" height="22" filterUnits="userSpaceOnUse" color-interpolation-filters="sRGB">
<feFlood flood-opacity="0" result="BackgroundImageFix"/>
<feColorMatrix in="SourceAlpha" type="matrix" values="0 0 0 0 0 0 0 0 0 0 0 0 0 0 0 0 0 0 127 0"/>
<feOffset dy="4"/>
<feGaussianBlur stdDeviation="2"/>
<feColorMatrix type="matrix" values="0 0 0 0 0 0 0 0 0 0 0 0 0 0 0 0 0 0 0.25 0"/>
<feBlend mode="normal" in2="BackgroundImageFix" result="effect1_dropShadow"/>
<feBlend mode="normal" in="SourceGraphic" in2="effect1_dropShadow" result="shape"/>
</filter>
</defs>
</svg>
