<?xml version="1.0" encoding="UTF-8" standalone="no"?>
<svg width="18" height="18" viewBox="0 0 18 18" fill="none" xmlns="http://www.w3.org/2000/svg">
<mask id="mask0" mask-type="alpha" maskUnits="userSpaceOnUse" x="0" y="2" width="18" height="14">
<path d="M3.53659 4L9.65079 9.24074H8.34921L14.4634 4H3.53659ZM16 5.31708L9 11.0878L2 5.31708V14H16V5.31708ZM0 16V2H18V16H0Z" fill="white"/>
</mask>
<g mask="url(#mask0)">
<g filter="url(#filter0_d)">
<path d="M3.53659 4L9.65079 9.24074H8.34921L14.4634 4H3.53659ZM16 5.31708L9 11.5L2 5.31708V14H16V5.31708ZM0 16V2H18V12.9915V16H0Z" fill="black"/>
<path d="M3.53659 3.5H2.18496L3.21119 4.37963L8.2317 8.68292L8.02381 8.86112L7.38631 9.40755L2.331 4.94233L1.5 4.20832V5.31708V14V14.5H2H16H16.5V14V5.31708V4.20832L15.669 4.94233L10.6137 9.40755L9.97619 8.86112L9.7683 8.68292L14.7888 4.37963L15.815 3.5H14.4634H3.53659ZM9.65079 9.74074H10.2365L9 10.8329L7.76353 9.74074H8.34921H9.65079ZM0.5 15.5V2.5H17.5V12.9915V15.5H0.5Z" stroke="black"/>
</g>
</g>
<defs>
<filter id="filter0_d" x="-4" y="2" width="26" height="22" filterUnits="userSpaceOnUse" color-interpolation-filters="sRGB">
<feFlood flood-opacity="0" result="BackgroundImageFix"/>
<feColorMatrix in="SourceAlpha" type="matrix" values="0 0 0 0 0 0 0 0 0 0 0 0 0 0 0 0 0 0 127 0"/>
<feOffset dy="4"/>
<feGaussianBlur stdDeviation="2"/>
<feColorMatrix type="matrix" values="0 0 0 0 0 0 0 0 0 0 0 0 0 0 0 0 0 0 0.25 0"/>
<feBlend mode="normal" in2="BackgroundImageFix" result="effect1_dropShadow"/>
<feBlend mode="normal" in="SourceGraphic" in2="effect1_dropShadow" result="shape"/>
</filter>
</defs>
</svg>
