<?xml version="1.0" encoding="UTF-8" standalone="no"?>
<svg width="22px" height="22px" viewBox="0 0 22 22" version="1.1" xmlns="http://www.w3.org/2000/svg" xmlns:xlink="http://www.w3.org/1999/xlink">
    <!-- Generator: Sketch 45.2 (43514) - http://www.bohemiancoding.com/sketch -->
    <title>social-instagram</title>
    <desc>Created with Sketch.</desc>
    <defs>
        <path d="M11.0000198,1 C13.7158369,1 14.0563809,1.01151157 15.1229872,1.06017771 C16.1873706,1.10872478 16.9143063,1.27778605 17.55038,1.5250069 C18.2079684,1.78052401 18.7656443,2.12245728 19.3216134,2.67838663 C19.8775427,3.23435568 20.219476,3.79203161 20.4750328,4.44962002 C20.722214,5.0856937 20.8912752,5.81262938 20.9398223,6.87701279 C20.9884884,7.94361912 21,8.28416306 21,11.0000198 C21,13.7158369 20.9884884,14.0563809 20.9398223,15.1229872 C20.8912752,16.1873706 20.722214,16.9143063 20.4750328,17.55038 C20.219476,18.2079684 19.8775427,18.7656443 19.3216134,19.3216134 C18.7656443,19.8775427 18.2079684,20.219476 17.55038,20.4750328 C16.9143063,20.722214 16.1873706,20.8912752 15.1229872,20.9398223 C14.0563809,20.9884884 13.7158369,21 11.0000198,21 C8.28416306,21 7.94361912,20.9884884 6.87701279,20.9398223 C5.81262938,20.8912752 5.0856937,20.722214 4.44962002,20.4750328 C3.79203161,20.219476 3.23435568,19.8775427 2.67838663,19.3216134 C2.12245728,18.7656443 1.78052401,18.2079684 1.5250069,17.55038 C1.27778605,16.9143063 1.10872478,16.1873706 1.06017771,15.1229872 C1.01151157,14.0563809 1,13.7158369 1,11.0000198 C1,8.28416306 1.01151157,7.94361912 1.06017771,6.87701279 C1.10872478,5.81262938 1.27778605,5.0856937 1.5250069,4.44962002 C1.78052401,3.79203161 2.12245728,3.23435568 2.67838663,2.67838663 C3.23435568,2.12245728 3.79203161,1.78052401 4.44962002,1.5250069 C5.0856937,1.27778605 5.81262938,1.10872478 6.87701279,1.06017771 C7.94361912,1.01151157 8.28416306,1 11.0000198,1 Z M11.0000198,2.80179858 C8.32989177,2.80179858 8.01360151,2.81200021 6.95914187,2.86011063 C5.98415175,2.9045691 5.45465931,3.06747764 5.10228624,3.2044256 C4.635512,3.38583204 4.30239103,3.60252738 3.95247906,3.95247906 C3.60252738,4.30239103 3.38583204,4.635512 3.2044256,5.10228624 C3.06747764,5.45465931 2.9045691,5.98415175 2.86011063,6.95914187 C2.81200021,8.01360151 2.80179858,8.32989177 2.80179858,11.0000198 C2.80179858,13.6701082 2.81200021,13.9863985 2.86011063,15.0408581 C2.9045691,16.0158483 3.06747764,16.5453407 3.2044256,16.8977138 C3.38583204,17.364488 3.60256708,17.697609 3.95247906,18.0475209 C4.30239103,18.3974726 4.635512,18.614168 5.10228624,18.7955744 C5.45465931,18.9325224 5.98415175,19.0954309 6.95914187,19.1398894 C8.01348243,19.1879998 8.3296933,19.1982014 11.0000198,19.1982014 C13.6703067,19.1982014 13.9865573,19.1879998 15.0408581,19.1398894 C16.0158483,19.0954309 16.5453407,18.9325224 16.8977138,18.7955744 C17.364488,18.614168 17.697609,18.3974726 18.0475209,18.0475209 C18.3974726,17.697609 18.614168,17.364488 18.7955744,16.8977138 C18.9325224,16.5453407 19.0954309,16.0158483 19.1398894,15.0408581 C19.1879998,13.9863985 19.1982014,13.6701082 19.1982014,11.0000198 C19.1982014,8.32989177 19.1879998,8.01360151 19.1398894,6.95914187 C19.0954309,5.98415175 18.9325224,5.45465931 18.7955744,5.10228624 C18.614168,4.635512 18.3974726,4.30239103 18.0475209,3.95247906 C17.697609,3.60252738 17.364488,3.38583204 16.8977138,3.2044256 C16.5453407,3.06747764 16.0158483,2.9045691 15.0408581,2.86011063 C13.9863985,2.81200021 13.6701082,2.80179858 11.0000198,2.80179858 Z M11.0000193,6 C13.7614415,6 16,8.23855849 16,11.0000193 C16,13.7614415 13.7614415,16 11.0000193,16 C8.23855849,16 6,13.7614415 6,11.0000193 C6,8.23855849 8.23855849,6 11.0000193,6 Z M11.0000179,14 C12.656862,14 14,12.656862 14,11.0000179 C14,9.34313801 12.656862,8 11.0000179,8 C9.34313801,8 8,9.34313801 8,11.0000179 C8,12.656862 9.34313801,14 11.0000179,14 Z M17,6.00001654 C17,6.55230645 16.5522734,7 15.9999835,7 C15.4477266,7 15,6.55230645 15,6.00001654 C15,5.44772663 15.4477266,5 15.9999835,5 C16.5522734,5 17,5.44772663 17,6.00001654 Z" id="path-1"></path>
    </defs>
    <g id="Symbols:-Icons" stroke="none" stroke-width="1" fill="none" fill-rule="evenodd">
        <g id="Icon/Social/Instagram/Regular">
            <mask id="mask-2" fill="white">
                <use xlink:href="#path-1"></use>
            </mask>
            <use id="social-instagram" fill="#000000" xlink:href="#path-1"></use>
            <g id="Color/Base/Black" mask="url(#mask-2)"></g>
        </g>
    </g>
</svg>