<?xml version="1.0" encoding="UTF-8" standalone="no"?>
<svg width="20px" height="20px" viewBox="0 0 20 20" version="1.1" xmlns="http://www.w3.org/2000/svg" xmlns:xlink="http://www.w3.org/1999/xlink">
    <!-- Generator: Sketch 45.2 (43514) - http://www.bohemiancoding.com/sketch -->
    <title>social-boxed-instagram</title>
    <desc>Created with Sketch.</desc>
    <defs>
        <path d="M0,3.99922997 C0,1.79051625 1.79246765,0 3.99922997,0 L16.00077,0 C18.2094838,0 20,1.79246765 20,3.99922997 L20,16.00077 C20,18.2094838 18.2075324,20 16.00077,20 L3.99922997,20 C1.79051625,20 0,18.2075324 0,16.00077 L0,3.99922997 L0,3.99922997 Z M2,6.99668583 C2,4.23709245 4.24157855,2 6.99668583,2 L13.0033142,2 C15.7629076,2 18,4.24157855 18,6.99668583 L18,13.0033142 C18,15.7629076 15.7584215,18 13.0033142,18 L6.99668583,18 C4.23709245,18 2,15.7584215 2,13.0033142 L2,6.99668583 L2,6.99668583 Z M4,6.99715203 C4,5.34187067 5.34162278,4 6.99715203,4 L13.002848,4 C14.6581293,4 16,5.34162278 16,6.99715203 L16,13.002848 C16,14.6581293 14.6583772,16 13.002848,16 L6.99715203,16 C5.34187067,16 4,14.6583772 4,13.002848 L4,6.99715203 L4,6.99715203 Z M14,7 C14.5522847,7 15,6.55228475 15,6 C15,5.44771525 14.5522847,5 14,5 C13.4477153,5 13,5.44771525 13,6 C13,6.55228475 13.4477153,7 14,7 L14,7 Z M10,14 C12.209139,14 14,12.209139 14,10 C14,7.790861 12.209139,6 10,6 C7.790861,6 6,7.790861 6,10 C6,12.209139 7.790861,14 10,14 L10,14 Z M10,12 C11.1045695,12 12,11.1045695 12,10 C12,8.8954305 11.1045695,8 10,8 C8.8954305,8 8,8.8954305 8,10 C8,11.1045695 8.8954305,12 10,12 L10,12 Z" id="path-1"></path>
    </defs>
    <g id="Symbols:-Icons" stroke="none" stroke-width="1" fill="none" fill-rule="evenodd">
        <g id="Icon/Social/Instagram/Boxed">
            <mask id="mask-2" fill="white">
                <use xlink:href="#path-1"></use>
            </mask>
            <use id="social-boxed-instagram" fill="#000000" xlink:href="#path-1"></use>
        </g>
    </g>
</svg>