<?xml version="1.0" encoding="UTF-8" standalone="no"?>
<svg width="22px" height="22px" viewBox="0 0 22 22" version="1.1" xmlns="http://www.w3.org/2000/svg" xmlns:xlink="http://www.w3.org/1999/xlink">
    <!-- Generator: Sketch 45.2 (43514) - http://www.bohemiancoding.com/sketch -->
    <title>social-linkedin</title>
    <desc>Created with Sketch.</desc>
    <defs>
        <path d="M5.54074418,21 L5.54074418,21 L1.25344043,21 L1.25344043,7.50534092 L5.54074418,7.50534092 L5.54074418,21 Z M3.39707322,5.66287312 L3.39699688,5.66287312 L3.3691337,5.66287312 C1.93036304,5.66287312 1,4.62663472 1,3.33163622 C1,2.00748727 1.95887509,1 3.42543259,1 C4.89214277,1 5.79483348,2.00748727 5.82269666,3.33163622 C5.82269666,4.62663472 4.89214277,5.66287312 3.39707322,5.66287312 Z M7.91304588,21 L7.91316039,21 C7.91316039,21 7.96942111,8.7715883 7.91316039,7.50534092 L12.200426,7.50534092 L12.200426,9.4624139 L12.1717994,9.4624139 C12.7359334,8.54117999 13.7512982,7.18867925 16.0641712,7.18867925 C18.8848793,7.18867925 21,9.11740042 21,13.262354 L21,21 L16.7130779,21 L16.7130779,13.7806729 C16.7130779,11.9665569 16.0924924,10.7290606 14.541124,10.7290606 C13.3567479,10.7290606 12.6513133,11.5636418 12.3413831,12.3694719 C12.2281746,12.6577818 12.2003115,13.0606968 12.2003115,13.4640112 L12.2003115,21 L7.91304588,21 Z" id="path-1"></path>
    </defs>
    <g id="Symbols:-Icons" stroke="none" stroke-width="1" fill="none" fill-rule="evenodd">
        <g id="Icon/Social/LinkedIn/Regular">
            <mask id="mask-2" fill="white">
                <use xlink:href="#path-1"></use>
            </mask>
            <use id="social-linkedin" fill="#000000" xlink:href="#path-1"></use>
            <g id="Color/Base/Black" mask="url(#mask-2)"></g>
        </g>
    </g>
</svg>