<?xml version="1.0" encoding="UTF-8" standalone="no"?>
<svg width="20px" height="20px" viewBox="0 0 20 20" version="1.1" xmlns="http://www.w3.org/2000/svg" xmlns:xlink="http://www.w3.org/1999/xlink">
    <!-- Generator: Sketch 45.2 (43514) - http://www.bohemiancoding.com/sketch -->
    <title>social-boxed-linkedin</title>
    <desc>Created with Sketch.</desc>
    <defs>
        <path d="M0,3.99922997 C0,1.79051625 1.79246765,0 3.99922997,0 L16.00077,0 C18.2094838,0 20,1.79246765 20,3.99922997 L20,16.00077 C20,18.2094838 18.2075324,20 16.00077,20 L3.99922997,20 C1.79051625,20 0,18.2075324 0,16.00077 L0,3.99922997 Z M8.14782753,16 L10.7201869,16 L10.7201869,11.4784067 C10.7201869,11.2364181 10.7369048,10.9946691 10.8048299,10.8216831 C10.990788,10.3381851 11.4140488,9.83743636 12.1246744,9.83743636 C13.0554954,9.83743636 13.4278468,10.5799341 13.4278468,11.6684037 L13.4278468,16 L16,16 L16,11.3574124 C16,8.87044025 14.7309276,7.71320755 13.0385027,7.71320755 C11.6507789,7.71320755 11.04156,8.524708 10.7030796,9.07744834 L10.7202556,9.07744834 L10.7202556,7.90320455 L8.14789623,7.90320455 C8.18165267,8.66295298 8.14789623,16 8.14789623,16 L8.14782753,16 Z M5.43824393,6.79772387 C6.33528566,6.79772387 6.893618,6.17598083 6.893618,5.39898173 C6.87690009,4.60449236 6.33528566,4 5.45525956,4 C4.57532505,4 4,4.60449236 4,5.39898173 C4,6.17598083 4.55821783,6.79772387 5.42148022,6.79772387 L5.43819813,6.79772387 L5.43824393,6.79772387 Z M6.72444651,16 L6.72444651,7.90320455 L4.15206426,7.90320455 L4.15206426,16 L6.72444651,16 L6.72444651,16 Z" id="path-1"></path>
    </defs>
    <g id="Symbols:-Icons" stroke="none" stroke-width="1" fill="none" fill-rule="evenodd">
        <g id="Icon/Social/LinkedIn/Boxed">
            <mask id="mask-2" fill="white">
                <use xlink:href="#path-1"></use>
            </mask>
            <use id="social-boxed-linkedin" fill="#000000" xlink:href="#path-1"></use>
        </g>
    </g>
</svg>